<?xml version="1.0" encoding="utf-8"?>
<!DOCTYPE svg PUBLIC "-//W3C//DTD SVG 1.1//EN" "http://www.w3.org/Graphics/SVG/1.1/DTD/svg11.dtd">
<svg style="width:308px;height:308px;" version="1.1" id="图形" xmlns="http://www.w3.org/2000/svg" xmlns:xlink="http://www.w3.org/1999/xlink" x="0px" y="0px" width="1024px" height="1024px" viewBox="0 0 1024 1024" enable-background="new 0 0 1024 1024" xml:space="preserve">
  <path class="svgpath" data-index="path_0" fill="#a9b7b7" d="M511.996418 968.761931c-245.456365 0-444.437232-204.495464-444.437232-456.782398 0-252.239861 198.980867-456.741465 444.443371-456.741465 245.456365 0 444.437232 204.502627 444.437232 456.741465 0 79.80765-20.023032 154.829298-55.047734 220.085534l-0.207731-0.193405c-5.097088 16.902972-19.85828 29.483498-38.027082 29.483498-22.299889 0-40.399105-18.587334-40.399105-41.544185l0.373507-3.849678c9.017374-26.52819 18.643616-45.115524 18.643616-45.115524 22.248723-48.452525 35.066657-102.341876 35.066657-159.435199 0-206.748784-163.091472-374.346897-364.256074-374.346897-201.137996 0-364.233562 167.598112-364.233562 374.346897 0 206.707852 163.096589 374.255823 364.233562 374.255823 80.328513 0 154.266479-27.034726 214.475769-72.29556 7.343245-7.982812 17.60189-13.052271 29.1499-13.052271 22.324448 0 40.398082 18.545378 40.398082 41.502229l-0.352017 3.849678c0 19.432585-11.803837 21.500687-30.912034 39.532365C693.326277 937.025113 606.596983 968.761931 511.996418 968.761931L511.996418 968.761931z" />
<path class="svgpath" data-index="path_1" fill="#a9b7b7" d="M511.999488 512" />
<path class="svgpath" data-index="path_2" fill="#a9b7b7" d="M690.282964 333.695035c-10.351766-10.368138-27.208689-10.368138-37.57785 0L511.972882 474.417033 371.296933 333.74927c-10.367115-10.369162-27.223015-10.369162-37.578874 0-10.374278 10.367115-10.374278 27.209712 0 37.578874l140.674926 140.683113L333.718059 652.677996c-10.374278 10.382465-10.374278 27.221991 0 37.59013 5.151323 5.205559 11.960403 7.812943 18.762319 7.812943 6.80294 0 13.612019-2.607384 18.815531-7.760754l140.676973-140.718929 140.681066 140.66674c5.203512 5.205559 12.012591 7.812943 18.821671 7.812943 6.795776 0 13.605879-2.607384 18.808368-7.760754 10.370185-10.365068 10.370185-27.221991 0-37.59013L549.566082 512.010233l140.664693-140.683113C700.653149 360.904747 700.653149 344.116385 690.282964 333.695035L690.282964 333.695035z" />

</svg>
